<?xml version="1.0" encoding="UTF-8" standalone="no"?>
<!-- Created with Inkscape (http://www.inkscape.org/) -->

<svg
   xmlns:dc="http://purl.org/dc/elements/1.1/"
   xmlns:cc="http://creativecommons.org/ns#"
   xmlns:rdf="http://www.w3.org/1999/02/22-rdf-syntax-ns#"
   xmlns:svg="http://www.w3.org/2000/svg"
   xmlns="http://www.w3.org/2000/svg"
   xmlns:sodipodi="http://sodipodi.sourceforge.net/DTD/sodipodi-0.dtd"
   xmlns:inkscape="http://www.inkscape.org/namespaces/inkscape"
   width="512"
   height="512"
   viewBox="0 0 135.46667 135.46667"
   version="1.1"
   id="svg8"
   inkscape:version="0.92.2 (5c3e80d, 2017-08-06)"
   sodipodi:docname="icon.svg"
   inkscape:export-filename="C:\Users\aga\data\website\DeathNoteTW\static\Image\icon.png"
   inkscape:export-xdpi="96"
   inkscape:export-ydpi="96">
  <defs
     id="defs2" />
  <sodipodi:namedview
     id="base"
     pagecolor="#ffffff"
     bordercolor="#666666"
     borderopacity="1.0"
     inkscape:pageopacity="0.0"
     inkscape:pageshadow="2"
     inkscape:zoom="0.7"
     inkscape:cx="40.69907"
     inkscape:cy="72.08203"
     inkscape:document-units="mm"
     inkscape:current-layer="layer2"
     showgrid="false"
     units="px"
     showguides="false"
     inkscape:snap-nodes="false"
     inkscape:window-width="1920"
     inkscape:window-height="986"
     inkscape:window-x="-11"
     inkscape:window-y="-11"
     inkscape:window-maximized="1" />
  <metadata
     id="metadata5">
    <rdf:RDF>
      <cc:Work
         rdf:about="">
        <dc:format>image/svg+xml</dc:format>
        <dc:type
           rdf:resource="http://purl.org/dc/dcmitype/StillImage" />
        <dc:title></dc:title>
      </cc:Work>
    </rdf:RDF>
  </metadata>
  <g
     inkscape:groupmode="layer"
     id="layer2"
     inkscape:label="main">
    <rect
       style="fill:#4d4d4d;fill-opacity:1;stroke:none;stroke-width:0.23343842"
       id="rect4625"
       width="110.5264"
       height="128.55664"
       x="14.612721"
       y="3.4355209"
       rx="0.81727147"
       ry="0.95247585" />
    <path
       style="display:inline;fill:#999999;fill-opacity:1;stroke:none;stroke-width:0.22048356px;stroke-linecap:butt;stroke-linejoin:miter;stroke-opacity:1"
       d="m 82.221536,15.740616 c 3.563552,-0.222721 5.56805,0.890888 6.458938,1.11361 0.890888,0.222723 5.790775,0.668167 6.681662,1.113611 0.890888,0.445444 5.122614,4.677163 3.340838,5.790773 -1.781789,1.113611 -4.454448,2.22722 -4.009004,4.231719 0.445442,2.004498 4.899903,5.345329 3.118114,8.017993 -1.781784,2.672665 -6.236225,12.695156 -6.236225,14.699656 0,2.004498 2.672667,2.895387 1.336334,9.131603 -1.336334,6.236216 -4.008997,21.381315 -4.899885,24.722146 -0.890889,3.340825 -1.781777,8.686157 -4.677163,9.577053 -2.895386,0.890885 -4.45444,1.336328 -4.899885,4.008996 -0.445443,2.672654 -0.668165,12.695154 -0.668165,14.254204 0,1.55906 0.668165,4.009 -0.222724,5.34533 -0.890889,1.33632 3.118111,1.33632 1.559056,1.33632 -1.559056,0 -8.017994,2.00451 -8.017994,-0.22271 0,-2.22721 1.559056,-8.46344 -1.781775,-10.46794 -3.340832,-2.0045 -8.017993,-2.0045 -11.581546,-5.12261 C 54.158561,100.15226 45.4724,91.243393 45.026955,87.457111 44.581511,83.670838 42.577011,76.098289 43.690623,71.866571 c 1.113611,-4.231719 8.908882,-16.926877 9.577049,-18.485928 0.668165,-1.559056 4.45444,-13.586046 6.681661,-14.699656 2.227219,-1.113609 3.118108,-3.786277 4.899884,-7.127107 1.781776,-3.340828 4.899883,-7.127103 6.458938,-8.017993 1.559055,-0.890887 6.904384,-2.672664 7.795272,-3.34083 0.890887,-0.668165 -0.222722,-4.454441 3.118109,-4.454441 z"
       id="path4608"
       inkscape:connector-curvature="0" />
    <path
       style="fill:none;stroke:none;stroke-width:0.31029662px;stroke-linecap:butt;stroke-linejoin:miter;stroke-opacity:1"
       d="m 107.93996,65.449598 c 0,0 16.16333,-4.2945 21.51523,0.132282 14.37959,11.893969 22.52951,37.53883 30.63865,58.06263 0,0 -16.57926,-42.467261 -35.24215,-54.861285 -4.68543,-3.111592 -16.91173,-3.333627 -16.91173,-3.333627 z"
       id="path4547"
       inkscape:connector-curvature="0"
       sodipodi:nodetypes="cscac" />
    <path
       inkscape:connector-curvature="0"
       id="path4629"
       d="m 79.8536,16.450997 c 3.563553,-0.222721 5.56805,0.890888 6.458939,1.11361 0.890888,0.222722 5.79077,0.668166 6.68166,1.113611 0.89089,0.445444 5.122615,4.677163 3.340835,5.790773 -1.781789,1.113611 -4.454441,2.22722 -4.009,4.231719 0.44544,2.004498 4.899899,5.345329 3.11811,8.017993 -1.78178,2.672665 -6.23622,12.695156 -6.23622,14.699656 0,2.004498 2.672669,2.895387 1.336334,9.131603 -1.336334,6.236216 -4.008997,21.381315 -4.899886,24.722146 -0.890888,3.340825 -1.781776,8.686157 -4.677162,9.577053 -2.895386,0.890886 -4.454441,1.336328 -4.899886,4.008997 -0.445443,2.672652 -0.668164,12.695162 -0.668164,14.254202 0,1.55906 0.668164,4.009 -0.222725,5.34533 -0.890888,1.33633 3.118112,1.33633 1.559057,1.33633 -1.559057,0 -8.017994,2.0045 -8.017994,-0.22272 0,-2.22721 1.559055,-8.46344 -1.781776,-10.46794 -3.340831,-2.00449 -8.017992,-2.00449 -11.581545,-5.1226 C 51.790625,100.86265 43.104465,91.953774 42.65902,88.167492 42.213576,84.381219 40.209076,76.80867 41.322687,72.576952 c 1.113612,-4.231719 8.908883,-16.926877 9.57705,-18.485928 0.668165,-1.559056 4.45444,-13.586046 6.68166,-14.699656 2.22722,-1.113609 3.118108,-3.786277 4.899885,-7.127107 1.781776,-3.340828 4.899883,-7.127103 6.458938,-8.017993 1.559055,-0.890887 6.904383,-2.672664 7.795272,-3.34083 0.890887,-0.668165 -0.222723,-4.454441 3.118108,-4.454441 z"
       style="display:inline;fill:#ffffff;fill-opacity:1;stroke:none;stroke-width:0.22048356px;stroke-linecap:butt;stroke-linejoin:miter;stroke-opacity:1" />
  </g>
</svg>
