<?xml version="1.0" encoding="UTF-8" standalone="no"?>
<!-- Created with Inkscape (http://www.inkscape.org/) -->

<svg
   xmlns:dc="http://purl.org/dc/elements/1.1/"
   xmlns:cc="http://creativecommons.org/ns#"
   xmlns:rdf="http://www.w3.org/1999/02/22-rdf-syntax-ns#"
   xmlns:svg="http://www.w3.org/2000/svg"
   xmlns="http://www.w3.org/2000/svg"
   xmlns:sodipodi="http://sodipodi.sourceforge.net/DTD/sodipodi-0.dtd"
   xmlns:inkscape="http://www.inkscape.org/namespaces/inkscape"
   width="512"
   height="512"
   viewBox="0 0 135.46667 135.46667"
   version="1.1"
   id="svg8"
   inkscape:version="0.92.2 (5c3e80d, 2017-08-06)"
   sodipodi:docname="icon-last.svg"
   inkscape:export-filename="C:\Users\aga\data\website\DeathNoteTW\static\Image\icon-last.png"
   inkscape:export-xdpi="96"
   inkscape:export-ydpi="96">
  <defs
     id="defs2" />
  <sodipodi:namedview
     id="base"
     pagecolor="#ffffff"
     bordercolor="#666666"
     borderopacity="1.0"
     inkscape:pageopacity="0.0"
     inkscape:pageshadow="2"
     inkscape:zoom="0.7"
     inkscape:cx="-226.27336"
     inkscape:cy="362.18872"
     inkscape:document-units="mm"
     inkscape:current-layer="layer2"
     showgrid="false"
     units="px"
     showguides="false"
     inkscape:snap-nodes="false"
     inkscape:window-width="1920"
     inkscape:window-height="986"
     inkscape:window-x="-11"
     inkscape:window-y="-11"
     inkscape:window-maximized="1" />
  <metadata
     id="metadata5">
    <rdf:RDF>
      <cc:Work
         rdf:about="">
        <dc:format>image/svg+xml</dc:format>
        <dc:type
           rdf:resource="http://purl.org/dc/dcmitype/StillImage" />
        <dc:title></dc:title>
      </cc:Work>
    </rdf:RDF>
  </metadata>
  <g
     inkscape:groupmode="layer"
     id="layer3"
     inkscape:label="circle"
     style="display:inline"
     sodipodi:insensitive="true">
    <path
       style="fill:#f9f9f9;fill-opacity:1;stroke:none;stroke-width:0.26458332px;stroke-linecap:butt;stroke-linejoin:miter;stroke-opacity:1"
       d="m 36.474701,116.37887 c 0,0 -13.18565,-4.58351 -18.875185,-10.6542 C 8.2695833,95.769701 2.3279519,87.632472 2.078869,67.241965 1.7318566,38.834731 22.843766,6.0355868 70.30357,5.2538687 115.43851,4.5104438 131.03401,47.171752 130.2128,67.619938 c -1.04291,25.968466 -14.94302,35.712822 -28.91518,48.191972 -7.590275,6.77921 -27.781252,12.6622 -27.781252,12.6622 0,0 44.798132,-24.93996 48.380942,-54.428573 C 124.97388,48.7236 108.59545,11.239951 69.358621,12.057442 24.144496,12.999468 8.3240888,44.640907 9.8273802,67.052975 11.554379,92.800217 15.834677,94.895376 24.001487,105.22858 c 4.111696,5.2024 12.473214,11.15029 12.473214,11.15029 z"
       id="path828"
       inkscape:connector-curvature="0"
       sodipodi:nodetypes="cssssacssssc" />
  </g>
  <g
     inkscape:groupmode="layer"
     id="layer2"
     inkscape:label="main">
    <path
       style="fill:#f9f9f9;fill-opacity:1;stroke:none;stroke-width:0.21291313px;stroke-linecap:butt;stroke-linejoin:miter;stroke-opacity:1"
       d="m 36.491111,46.197439 c 5.454996,5.494891 4.421847,7.02234 7.453522,5.887386 5.245541,-1.96375 16.658268,-6.385301 25.456658,-7.937069 6.563478,-1.157599 19.765343,0.364522 20.020767,-0.959428 0.888741,-4.606633 -6.519683,-9.968389 -10.322993,-8.503997 -11.442501,4.405717 -23.408828,7.674011 -35.457486,10.379241 -2.349779,0.527585 -7.150468,1.133867 -7.150468,1.133867 z"
       id="path928"
       inkscape:connector-curvature="0"
       sodipodi:nodetypes="csassac" />
    <path
       style="fill:#f9f9f9;fill-opacity:1;stroke:none;stroke-width:0.22177398px;stroke-linecap:butt;stroke-linejoin:miter;stroke-opacity:1"
       d="m 46.145247,66.1214 c 2.073345,2.201973 4.77703,6.103704 6.587376,5.153487 5.064985,-2.658519 12.666731,-4.890013 19.288109,-4.517054 3.949325,0.222452 11.821745,1.311697 10.888448,-1.269479 -0.933294,-2.581173 -4.203049,-6.432113 -7.963267,-5.767763 -7.460694,1.318145 -13.33868,2.828962 -19.985561,4.329667 -2.945262,0.664968 -8.815105,2.071142 -8.815105,2.071142 z"
       id="path930"
       inkscape:connector-curvature="0"
       sodipodi:nodetypes="cssssac" />
    <path
       style="fill:#f9f9f9;fill-opacity:1;stroke:none;stroke-width:0.19080311px;stroke-linecap:butt;stroke-linejoin:miter;stroke-opacity:1"
       d="m 59.3487,19.163012 c 8.802302,4.186588 12.777535,4.971574 10.222026,10.728134 -2.555506,5.756559 -0.851834,45.005828 -1.419725,52.855683 -0.567891,7.849861 2.271562,22.764581 0.283946,24.857871 -1.987616,2.0933 -4.543123,9.15816 -7.09863,5.23324 -2.555506,-3.92493 -19.02433,-12.82143 -14.481205,-12.55977 4.543123,0.26166 10.789917,1.04664 12.777533,-4.448257 1.987616,-5.494895 2.277365,-34.181405 1.419725,-48.407428 z"
       id="path940"
       inkscape:connector-curvature="0"
       sodipodi:nodetypes="csssscssc" />
    <path
       style="fill:#f9f9f9;fill-opacity:1;stroke:none;stroke-width:0.19080311px;stroke-linecap:butt;stroke-linejoin:miter;stroke-opacity:1"
       d="m 28.114728,76.205284 c -1.703672,6.803208 -2.795717,9.394738 -0.56789,13.344754 1.610298,2.855113 5.111013,8.634841 8.802301,5.233241 3.691288,-3.401618 20.727999,-15.176392 17.604603,-14.391406 -3.123398,0.784986 -13.061481,7.326531 -18.172493,4.971572 -5.111014,-2.354953 -7.666521,-9.158161 -7.666521,-9.158161 z"
       id="path942"
       inkscape:connector-curvature="0"
       sodipodi:nodetypes="cacscc" />
    <path
       style="fill:#f9f9f9;fill-opacity:1;stroke:none;stroke-width:0.19080311px;stroke-linecap:butt;stroke-linejoin:miter;stroke-opacity:1"
       d="m 82.77418,71.757034 c 6.530739,-0.261664 14.092499,3.646515 17.6046,8.896499 2.78322,4.16043 5.37885,12.595819 0.56789,14.653063 -5.826235,2.491395 -25.27112,-2.616612 -19.30827,-3.4016 5.962846,-0.784989 9.821287,-5.635521 9.93808,-10.204815 0.109306,-4.276182 -8.8023,-9.943147 -8.8023,-9.943147 z"
       id="path944"
       inkscape:connector-curvature="0"
       sodipodi:nodetypes="cassac" />
  </g>
</svg>
