<?xml version="1.0" encoding="UTF-8" standalone="no"?>
<!-- Created with Inkscape (http://www.inkscape.org/) -->

<svg
   xmlns:dc="http://purl.org/dc/elements/1.1/"
   xmlns:cc="http://creativecommons.org/ns#"
   xmlns:rdf="http://www.w3.org/1999/02/22-rdf-syntax-ns#"
   xmlns:svg="http://www.w3.org/2000/svg"
   xmlns="http://www.w3.org/2000/svg"
   xmlns:sodipodi="http://sodipodi.sourceforge.net/DTD/sodipodi-0.dtd"
   xmlns:inkscape="http://www.inkscape.org/namespaces/inkscape"
   width="512"
   height="512"
   viewBox="0 0 135.46667 135.46667"
   version="1.1"
   id="svg8"
   inkscape:version="0.92.2 (5c3e80d, 2017-08-06)"
   sodipodi:docname="icon-born.svg"
   inkscape:export-filename="C:\Users\aga\data\website\DeathNoteTW\static\Image\icon-born.png"
   inkscape:export-xdpi="96"
   inkscape:export-ydpi="96">
  <defs
     id="defs2" />
  <sodipodi:namedview
     id="base"
     pagecolor="#ffffff"
     bordercolor="#666666"
     borderopacity="1.0"
     inkscape:pageopacity="0.0"
     inkscape:pageshadow="2"
     inkscape:zoom="0.7"
     inkscape:cx="-58.555315"
     inkscape:cy="235.76846"
     inkscape:document-units="mm"
     inkscape:current-layer="layer2"
     showgrid="false"
     units="px"
     showguides="false"
     inkscape:snap-nodes="false"
     inkscape:window-width="1920"
     inkscape:window-height="986"
     inkscape:window-x="-11"
     inkscape:window-y="-11"
     inkscape:window-maximized="1" />
  <metadata
     id="metadata5">
    <rdf:RDF>
      <cc:Work
         rdf:about="">
        <dc:format>image/svg+xml</dc:format>
        <dc:type
           rdf:resource="http://purl.org/dc/dcmitype/StillImage" />
        <dc:title></dc:title>
      </cc:Work>
    </rdf:RDF>
  </metadata>
  <g
     inkscape:groupmode="layer"
     id="layer3"
     inkscape:label="circle"
     style="display:inline"
     sodipodi:insensitive="true">
    <path
       style="fill:#f9f9f9;fill-opacity:1;stroke:none;stroke-width:0.26458332px;stroke-linecap:butt;stroke-linejoin:miter;stroke-opacity:1"
       d="m 36.474701,116.37887 c 0,0 -13.18565,-4.58351 -18.875185,-10.6542 C 8.2695833,95.769701 2.3279519,87.632472 2.078869,67.241965 1.7318566,38.834731 22.843766,6.0355868 70.30357,5.2538687 115.43851,4.5104438 131.03401,47.171752 130.2128,67.619938 c -1.04291,25.968466 -14.94302,35.712822 -28.91518,48.191972 -7.590275,6.77921 -27.781252,12.6622 -27.781252,12.6622 0,0 44.798132,-24.93996 48.380942,-54.428573 C 124.97388,48.7236 108.59545,11.239951 69.358621,12.057442 24.144496,12.999468 8.3240888,44.640907 9.8273802,67.052975 11.554379,92.800217 15.834677,94.895376 24.001487,105.22858 c 4.111696,5.2024 12.473214,11.15029 12.473214,11.15029 z"
       id="path828"
       inkscape:connector-curvature="0"
       sodipodi:nodetypes="cssssacssssc" />
  </g>
  <g
     inkscape:groupmode="layer"
     id="layer2"
     inkscape:label="main">
    <path
       style="fill:#f9f9f9;fill-opacity:1;stroke:none;stroke-width:0.21349265px;stroke-linecap:butt;stroke-linejoin:miter;stroke-opacity:1"
       d="m 34.501206,36.069485 c 10.211611,2.72733 13.923021,-0.01615 14.290425,5.70229 0.367404,5.718439 -0.233119,17.891774 -2.139814,21.381427 -1.906695,3.489653 -8.10424,5.514482 -7.118519,2.881054 0.985721,-2.633425 1.493981,-13.710981 0.407923,-16.943288 C 38.85516,45.858662 34.501206,36.069485 34.501206,36.069485 Z"
       id="path870"
       inkscape:connector-curvature="0" />
    <path
       style="fill:#f9f9f9;fill-opacity:1;stroke:none;stroke-width:0.27510703px;stroke-linecap:butt;stroke-linejoin:miter;stroke-opacity:1"
       d="m 43.924129,54.091472 c 2.817559,4.902413 3.8577,7.29618 7.527331,5.247387 3.802822,-2.123155 12.34397,-4.124341 16.061582,-5.590685 4.336849,-1.710591 20.765006,-0.454184 19.513414,-3.341867 -1.252199,-2.889086 -5.451869,-9.377079 -10.515695,-7.454769 -6.177944,2.345246 -16.669543,5.784283 -22.371808,7.922897 -5.702268,2.138609 -10.214824,3.217037 -10.214824,3.217037 z"
       id="path872"
       inkscape:connector-curvature="0"
       sodipodi:nodetypes="csssssc" />
    <path
       style="fill:#f9f9f9;fill-opacity:1;stroke:none;stroke-width:0.23644257px;stroke-linecap:butt;stroke-linejoin:miter;stroke-opacity:1"
       d="m 55.038771,80.700101 c 5.437419,-3.351748 8.8046,-3.71072 13.703272,-5.380482 4.536437,-1.54629 14.821111,-0.774112 16.086744,-0.804002 3.874967,-0.09152 -2.163711,-8.469613 -5.459714,-7.889051 -5.828139,1.026574 -13.511102,2.236401 -19.665324,4.242687 -6.012041,1.959935 -13.095572,2.079135 -11.224064,4.988492 1.638337,2.54688 4.131623,6.147167 6.559086,4.842356 z"
       id="path874"
       inkscape:connector-curvature="0"
       sodipodi:nodetypes="csssssc" />
    <path
       style="fill:#f9f9f9;fill-opacity:1;stroke:none;stroke-width:0.19686176px;stroke-linecap:butt;stroke-linejoin:miter;stroke-opacity:1"
       d="m 61.133565,23.965857 c 6.63862,-0.168681 13.579584,0.792504 11.595642,8.186158 -2.111968,7.870772 -3.29247,31.081187 -3.051782,39.651939 0.252285,8.9837 2.115895,26.288861 -1.546245,24.733881 -3.66214,-1.55499 -5.796345,0.87605 -6.101525,-1.19726 -0.305178,-2.0733 2.15456,-20.167502 1.544203,-30.274858 -0.610356,-10.107358 -0.762662,-28.614599 -1.220713,-33.172865 -0.449919,-4.477343 -1.21958,-7.926995 -1.21958,-7.926995 z"
       id="path876"
       inkscape:connector-curvature="0"
       sodipodi:nodetypes="csscsssc" />
    <path
       style="fill:#f9f9f9;fill-opacity:1;stroke:none;stroke-width:0.17673407px;stroke-linecap:butt;stroke-linejoin:miter;stroke-opacity:1"
       d="m 30.727441,94.710345 c 2.572473,4.390905 3.996942,9.732225 8.427118,8.239095 4.43018,-1.49313 18.7754,-3.494966 27.914519,-4.287366 9.139118,-0.79239 37.872322,5.237956 37.047682,0.120097 -0.82463,-5.11785 -6.612827,-11.372719 -11.509651,-10.092666 -4.791323,1.252474 -21.665217,2.827037 -30.535283,4.59352 -8.870067,1.76649 -31.344385,1.42732 -31.344385,1.42732 z"
       id="path878"
       inkscape:connector-curvature="0"
       sodipodi:nodetypes="csccssc" />
  </g>
</svg>
