<?xml version="1.0" encoding="UTF-8" standalone="no"?>
<!-- Created with Inkscape (http://www.inkscape.org/) -->

<svg
   xmlns:dc="http://purl.org/dc/elements/1.1/"
   xmlns:cc="http://creativecommons.org/ns#"
   xmlns:rdf="http://www.w3.org/1999/02/22-rdf-syntax-ns#"
   xmlns:svg="http://www.w3.org/2000/svg"
   xmlns="http://www.w3.org/2000/svg"
   xmlns:sodipodi="http://sodipodi.sourceforge.net/DTD/sodipodi-0.dtd"
   xmlns:inkscape="http://www.inkscape.org/namespaces/inkscape"
   width="512"
   height="512"
   viewBox="0 0 135.46667 135.46667"
   version="1.1"
   id="svg8"
   inkscape:version="0.92.2 (5c3e80d, 2017-08-06)"
   sodipodi:docname="icon-rule.svg"
   inkscape:export-filename="C:\Users\aga\data\website\DeathNoteTW\static\Image\icon-rule.png"
   inkscape:export-xdpi="96"
   inkscape:export-ydpi="96">
  <defs
     id="defs2" />
  <sodipodi:namedview
     id="base"
     pagecolor="#ffffff"
     bordercolor="#666666"
     borderopacity="1.0"
     inkscape:pageopacity="0.0"
     inkscape:pageshadow="2"
     inkscape:zoom="0.7"
     inkscape:cx="57.630202"
     inkscape:cy="312.9798"
     inkscape:document-units="mm"
     inkscape:current-layer="layer2"
     showgrid="false"
     units="px"
     showguides="false"
     inkscape:snap-nodes="false"
     inkscape:window-width="1920"
     inkscape:window-height="986"
     inkscape:window-x="-11"
     inkscape:window-y="-11"
     inkscape:window-maximized="1" />
  <metadata
     id="metadata5">
    <rdf:RDF>
      <cc:Work
         rdf:about="">
        <dc:format>image/svg+xml</dc:format>
        <dc:type
           rdf:resource="http://purl.org/dc/dcmitype/StillImage" />
        <dc:title></dc:title>
      </cc:Work>
    </rdf:RDF>
  </metadata>
  <g
     inkscape:groupmode="layer"
     id="layer3"
     inkscape:label="circle"
     style="display:inline">
    <path
       style="fill:#f9f9f9;fill-opacity:1;stroke:none;stroke-width:0.26458332px;stroke-linecap:butt;stroke-linejoin:miter;stroke-opacity:1"
       d="m 36.474701,116.37887 c 0,0 -13.18565,-4.58351 -18.875185,-10.6542 C 8.2695833,95.769701 2.3279519,87.632472 2.078869,67.241965 1.7318566,38.834731 22.843766,6.0355868 70.30357,5.2538687 115.43851,4.5104438 131.03401,47.171752 130.2128,67.619938 c -1.04291,25.968466 -14.94302,35.712822 -28.91518,48.191972 -7.590275,6.77921 -27.781252,12.6622 -27.781252,12.6622 0,0 44.798132,-24.93996 48.380942,-54.428573 C 124.97388,48.7236 108.59545,11.239951 69.358621,12.057442 24.144496,12.999468 8.3240888,44.640907 9.8273802,67.052975 11.554379,92.800217 15.834677,94.895376 24.001487,105.22858 c 4.111696,5.2024 12.473214,11.15029 12.473214,11.15029 z"
       id="path828"
       inkscape:connector-curvature="0"
       sodipodi:nodetypes="cssssacssssc" />
  </g>
  <g
     inkscape:groupmode="layer"
     id="layer2"
     inkscape:label="main">
    <path
       style="fill:#f9f9f9;fill-opacity:1;stroke:none;stroke-width:0.19263962px;stroke-linecap:butt;stroke-linejoin:miter;stroke-opacity:1"
       d="m 24.887118,52.374617 c 2.901508,2.462826 6.349429,4.097408 7.720762,3.127582 1.371335,-0.969823 5.757218,-4.568616 9.193853,-5.273202 3.436633,-0.704586 7.976709,-0.864087 7.1478,-1.548096 -0.828908,-0.684007 -5.115691,-5.06657 -6.761559,-3.957821 -1.645866,1.108752 -9.192523,5.548399 -10.840382,6.244356 -1.647858,0.695956 -6.460474,1.407181 -6.460474,1.407181 z"
       id="path848"
       inkscape:connector-curvature="0" />
    <path
       style="fill:#f9f9f9;fill-opacity:1;stroke:none;stroke-width:0.21616274px;stroke-linecap:butt;stroke-linejoin:miter;stroke-opacity:1"
       d="m 14.877281,74.453884 c 5.231114,0.413807 9.545346,3.138572 11.034274,1.829905 1.488926,-1.308666 9.266454,-8.769034 14.170883,-10.677967 4.904429,-1.908938 14.298612,-4.369623 13.498897,-5.60412 -0.799713,-1.234498 -3.56092,-4.155426 -7.531241,-2.026762 -3.970317,2.128662 -15.875529,9.358215 -20.721607,11.536091 -4.846078,2.177879 -10.451206,4.942853 -10.451206,4.942853 z"
       id="path850"
       inkscape:connector-curvature="0" />
    <path
       style="fill:#f9f9f9;fill-opacity:1;stroke:none;stroke-width:0.18287934px;stroke-linecap:butt;stroke-linejoin:miter;stroke-opacity:1"
       d="m 34.55149,35.751582 c 6.116862,1.93487 9.106777,2.908528 7.695453,7.145868 -1.411325,4.237337 -1.68346,24.060745 -2.602721,27.630793 -0.919265,3.57005 -6.91715,19.679791 -10.082627,21.337 -3.165478,1.657202 -6.070541,4.660484 -4.823562,3.177511 C 25.98501,93.559782 32.8924,79.857849 34.535369,73.607151 36.17834,67.356452 36.425602,48.780503 36.100328,45.198965 35.775053,41.617422 34.55149,35.751582 34.55149,35.751582 Z"
       id="path852"
       inkscape:connector-curvature="0" />
    <path
       style="fill:#f9f9f9;fill-opacity:1;stroke:none;stroke-width:0.19263962px;stroke-linecap:butt;stroke-linejoin:miter;stroke-opacity:1"
       d="m 40.560631,67.890301 c 4.282823,2.180946 8.679594,9.468517 8.421362,11.520912 -0.258234,2.052396 -0.515332,11.134508 -3.109881,6.020202 -2.594549,-5.114306 -6.255775,-10.842529 -6.126848,-13.040348 0.128928,-2.197818 0.815367,-4.500766 0.815367,-4.500766 z"
       id="path854"
       inkscape:connector-curvature="0" />
    <path
       style="fill:#f9f9f9;fill-opacity:1;stroke:none;stroke-width:0.17307901px;stroke-linecap:butt;stroke-linejoin:miter;stroke-opacity:1"
       d="m 55.374895,26.768608 c 3.458295,2.819625 6.017785,1.564274 5.66003,4.127569 -0.357755,2.563295 -0.477006,23.454145 -0.477006,27.811745 0,4.357602 1.192515,19.865533 0,18.840215 -1.192516,-1.025316 -6.081831,-3.844942 -5.366323,-7.305388 0.71551,-3.46045 1.431021,-23.838641 0.954013,-28.324407 -0.477007,-4.485766 -0.770714,-15.149734 -0.770714,-15.149734 z"
       id="path856"
       inkscape:connector-curvature="0"
       sodipodi:nodetypes="csscssc" />
    <path
       style="fill:#f9f9f9;fill-opacity:1;stroke:none;stroke-width:0.19263962px;stroke-linecap:butt;stroke-linejoin:miter;stroke-opacity:1"
       d="m 61.233695,30.783268 c 2.476794,1.238399 3.302394,2.063997 7.155186,0.825599 3.852793,-1.238398 9.399247,-4.265592 12.426441,-2.476795 3.027195,1.788797 0.825598,0.137599 0.963199,12.108776 0.137598,11.971177 -0.137601,33.161537 0.275199,35.775933 0.4128,2.614394 5.874325,8.806383 6.424723,6.742386 0.550397,-2.063996 -0.963201,-25.59355 -1.100802,-32.886338 -0.137593,-7.292785 1.092976,-16.462397 1.581552,-17.141987 0.920093,-1.279812 2.959241,-1.984375 2.271244,-3.497972 -0.687999,-1.513597 -6.604789,-12.246377 -8.668784,-10.182381 -2.063995,2.063997 -1.926397,3.852794 -6.742388,5.50399 -4.815991,1.651197 -14.58557,5.228789 -14.58557,5.228789 z"
       id="path858"
       inkscape:connector-curvature="0"
       sodipodi:nodetypes="cssssscscssc" />
    <path
       style="fill:#f9f9f9;fill-opacity:1;stroke:none;stroke-width:0.21358757px;stroke-linecap:butt;stroke-linejoin:miter;stroke-opacity:1"
       d="m 61.827199,44.507536 c 4.95359,-1.184067 4.696649,-0.825398 8.824641,-2.516921 4.127991,-1.691524 5.315,-2.229527 6.415799,0.307759 1.100797,2.537288 2.109551,4.652732 0.871153,3.976124 -1.238398,-0.676613 -9.076175,0.578744 -10.921768,1.257419 -1.737408,0.638893 -3.12583,1.722072 -3.538627,0.876308 -0.4128,-0.845759 -1.651198,-3.900689 -1.651198,-3.900689 z"
       id="path860"
       inkscape:connector-curvature="0"
       sodipodi:nodetypes="csccscc" />
    <path
       style="fill:#f9f9f9;fill-opacity:1;stroke:none;stroke-width:0.21358757px;stroke-linecap:butt;stroke-linejoin:miter;stroke-opacity:1"
       d="m 62.352927,56.283236 c 0.981455,2.171445 2.63755,4.922774 3.633122,4.059657 2.129503,-1.327763 5.257098,-2.170096 7.990759,-2.580095 1.738495,-0.260742 5.464029,1.286959 5.25364,0.09071 -0.367711,-2.090765 -3.411762,-5.927508 -4.193499,-5.629931 -3.908057,1.487652 -5.886106,2.368134 -7.537303,2.875591 -1.651198,0.507456 -5.146719,1.184069 -5.146719,1.184068 z"
       id="path862"
       inkscape:connector-curvature="0"
       sodipodi:nodetypes="ccasssc" />
    <path
       style="fill:#f9f9f9;fill-opacity:1;stroke:none;stroke-width:0.19263962px;stroke-linecap:butt;stroke-linejoin:miter;stroke-opacity:1"
       d="m 60.270497,72.475988 c 1.651196,1.1008 0.825597,4.127993 4.265592,2.889595 3.439992,-1.238397 7.843183,-2.751994 11.007977,-2.614395 3.164794,0.1376 7.017587,2.201596 7.017587,0.963198 0,-1.238398 -1.788796,-5.50399 -4.265591,-5.09119 -2.476797,0.4128 -8.118385,2.063997 -10.319981,2.476795 -2.201595,0.412799 -7.705584,1.375997 -7.705584,1.375997 z"
       id="path864"
       inkscape:connector-curvature="0" />
    <path
       style="fill:#f9f9f9;fill-opacity:1;stroke:none;stroke-width:0.14952648px;stroke-linecap:butt;stroke-linejoin:miter;stroke-opacity:1"
       d="m 63.309632,72.681542 c 2.672137,2.151552 4.008205,5.378881 3.817339,7.410902 -0.190867,2.032022 -7.357625,9.933054 -11.929182,13.387435 -2.58548,1.953652 -9.447915,5.13982 -8.49358,3.94452 0.954336,-1.19531 11.165716,-10.27964 13.169819,-14.463218 2.004103,-4.183573 3.435604,-10.279639 3.435604,-10.279639 z"
       id="path866"
       inkscape:connector-curvature="0"
       sodipodi:nodetypes="csacsc" />
    <path
       style="fill:#f9f9f9;fill-opacity:1;stroke:none;stroke-width:0.16974786px;stroke-linecap:butt;stroke-linejoin:miter;stroke-opacity:1"
       d="m 71.88799,70.569024 c 4.839331,2.794828 7.138015,0.607572 5.807197,4.00997 -1.330816,3.4024 -6.412113,17.984107 -5.323264,21.143479 1.088849,3.159369 10.32964,3.064335 15.417861,2.066056 3.87057,-0.759383 7.946997,-2.695198 10.264988,-5.886576 2.939808,-4.047482 1.500428,-17.605675 3.073208,-14.68933 1.57278,2.91634 11.92785,21.107084 6.37416,23.640477 -7.31422,3.33647 -19.217506,4.47392 -28.721665,2.95679 -5.976126,-0.95396 -8.642185,-1.74643 -9.796085,-7.115297 -1.260762,-5.866086 2.9036,-26.125569 2.9036,-26.125569 z"
       id="path868"
       inkscape:connector-curvature="0"
       sodipodi:nodetypes="cssaacsssc" />
  </g>
</svg>
