<?xml version="1.0" encoding="UTF-8" standalone="no"?>
<!-- Created with Inkscape (http://www.inkscape.org/) -->

<svg
   xmlns:dc="http://purl.org/dc/elements/1.1/"
   xmlns:cc="http://creativecommons.org/ns#"
   xmlns:rdf="http://www.w3.org/1999/02/22-rdf-syntax-ns#"
   xmlns:svg="http://www.w3.org/2000/svg"
   xmlns="http://www.w3.org/2000/svg"
   xmlns:sodipodi="http://sodipodi.sourceforge.net/DTD/sodipodi-0.dtd"
   xmlns:inkscape="http://www.inkscape.org/namespaces/inkscape"
   width="512"
   height="512"
   viewBox="0 0 135.46667 135.46667"
   version="1.1"
   id="svg8"
   inkscape:version="0.92.2 (5c3e80d, 2017-08-06)"
   sodipodi:docname="icon.svg"
   inkscape:export-filename="C:\Users\aga\data\website\DeathNoteTW\static\Image\icon.png"
   inkscape:export-xdpi="96"
   inkscape:export-ydpi="96">
  <defs
     id="defs2" />
  <sodipodi:namedview
     id="base"
     pagecolor="#ffffff"
     bordercolor="#666666"
     borderopacity="1.0"
     inkscape:pageopacity="0.0"
     inkscape:pageshadow="2"
     inkscape:zoom="0.98994949"
     inkscape:cx="65.156233"
     inkscape:cy="258.46987"
     inkscape:document-units="mm"
     inkscape:current-layer="layer2"
     showgrid="false"
     units="px"
     showguides="false"
     inkscape:snap-nodes="false"
     inkscape:window-width="1920"
     inkscape:window-height="986"
     inkscape:window-x="-11"
     inkscape:window-y="-11"
     inkscape:window-maximized="1" />
  <metadata
     id="metadata5">
    <rdf:RDF>
      <cc:Work
         rdf:about="">
        <dc:format>image/svg+xml</dc:format>
        <dc:type
           rdf:resource="http://purl.org/dc/dcmitype/StillImage" />
        <dc:title />
      </cc:Work>
    </rdf:RDF>
  </metadata>
  <g
     inkscape:groupmode="layer"
     id="layer2"
     inkscape:label="main">
    <rect
       style="fill:#4d4d4d;fill-opacity:1;stroke:none;stroke-width:0.23343842"
       id="rect4625"
       width="110.5264"
       height="128.55664"
       x="14.612721"
       y="3.4355209"
       rx="0.81727147"
       ry="0.95247585" />
    <g
       id="g835"
       transform="rotate(-19.571729,69.788023,49.84134)">
      <path
         sodipodi:nodetypes="cscssc"
         inkscape:connector-curvature="0"
         id="path821"
         d="m 57.981097,18.031134 c -5.218432,2.224531 -20.003671,9.574413 -27.050716,18.587743 -7.047042,9.013332 -11.703053,19.228379 -11.703053,19.228379 0,0 14.5499,-14.757754 22.829169,-19.282915 8.279269,-4.52516 18.798711,-8.499524 21.18002,-11.246245 2.355423,-2.716863 -3.805962,-8.253902 -5.25542,-7.286962 z"
         style="fill:#ffffff;stroke:none;stroke-width:0.26458332px;stroke-linecap:butt;stroke-linejoin:miter;stroke-opacity:1" />
      <path
         inkscape:connector-curvature="0"
         id="path831"
         d="m 58.264755,17.868074 c 3.741774,1.069078 6.68174,-0.534539 6.414471,4.009043 -0.267272,4.543582 -0.53454,36.883195 4.81085,51.31575 5.34539,14.432552 20.847023,42.763123 19.777945,45.168553 -1.069078,2.40542 -7.483546,6.949 -7.750815,3.74177 C 81.249934,118.89595 63.342876,72.658326 62.54107,68.916554 61.739261,65.17478 58.532026,31.49882 57.462948,26.15343 56.39387,20.808039 58.264755,17.868074 58.264755,17.868074 Z"
         style="fill:#ffffff;stroke:none;stroke-width:0.26458332px;stroke-linecap:butt;stroke-linejoin:miter;stroke-opacity:1" />
    </g>
    <path
       style="fill:none;stroke:none;stroke-width:0.31029662px;stroke-linecap:butt;stroke-linejoin:miter;stroke-opacity:1"
       d="m 107.93996,65.449598 c 0,0 16.16333,-4.2945 21.51523,0.132282 14.37959,11.893969 22.52951,37.53883 30.63865,58.06263 0,0 -16.57926,-42.467261 -35.24215,-54.861285 -4.68543,-3.111592 -16.91173,-3.333627 -16.91173,-3.333627 z"
       id="path4547"
       inkscape:connector-curvature="0"
       sodipodi:nodetypes="cscac" />
    <g
       id="g839"
       transform="rotate(5.4557773,70.989666,66.159174)">
      <path
         inkscape:connector-curvature="0"
         id="path4608"
         d="m 95.001894,20.476191 c 3.505224,0.679639 5.165686,2.261095 5.972056,2.700479 0.80636,0.439385 5.43722,2.101469 6.18763,2.756433 0.75042,0.654963 3.78337,5.814049 1.77897,6.444338 -2.0044,0.630288 -4.87111,1.036773 -4.94351,3.088892 -0.0724,2.052118 3.39995,6.40484 1.00388,8.544184 -2.39605,2.139345 -9.225446,10.721406 -9.729006,12.661625 -0.50356,1.940216 1.859593,3.473949 -1.000516,9.174471 -2.86011,5.700522 -9.251739,19.688525 -10.953324,22.698416 -1.701584,3.009885 -3.90673,7.959995 -6.933071,8.094957 -3.026338,0.134951 -4.647297,0.174452 -5.749872,2.649508 -1.102568,2.475046 -3.835949,12.120186 -4.227606,13.629236 -0.391659,1.50907 -0.360383,4.04829 -1.558408,5.11796 -1.198023,1.06966 2.682414,2.07678 1.173355,1.68513 -1.509059,-0.39166 -8.26443,-0.074 -7.704919,-2.22981 0.559508,-2.15579 3.635201,-7.80037 0.905067,-10.57986 -2.730136,-2.77948 -7.257307,-3.95445 -9.923266,-7.867788 C 46.633397,95.131028 40.46383,84.325764 40.983841,80.549 c 0.520009,-3.776754 0.482127,-11.610022 2.623098,-15.426278 2.14097,-3.816258 12.87547,-14.146011 13.913867,-15.487212 1.038396,-1.341206 7.724609,-12.031338 10.160161,-12.549725 2.435551,-0.518386 3.969284,-2.881541 6.533187,-5.667626 2.563903,-2.786083 6.533185,-5.667623 8.266048,-6.138285 1.732862,-0.47066 7.354383,-0.852471 8.384554,-1.275406 1.030171,-0.422933 0.903443,-4.367544 4.137138,-3.528277 z"
         style="display:inline;fill:#999999;fill-opacity:1;stroke:none;stroke-width:0.22048356px;stroke-linecap:butt;stroke-linejoin:miter;stroke-opacity:1" />
      <path
         style="display:inline;fill:#ffffff;fill-opacity:1;stroke:none;stroke-width:0.22048356px;stroke-linecap:butt;stroke-linejoin:miter;stroke-opacity:1"
         d="m 92.531436,20.56893 c 3.505226,0.679639 5.165686,2.261096 5.972054,2.70048 0.806367,0.439384 5.43721,2.101466 6.18763,2.756431 0.75042,0.654965 3.78337,5.81405 1.77897,6.444339 -2.0044,0.630287 -4.8711,1.036774 -4.9435,3.088893 -0.0724,2.052117 3.39993,6.404839 1.00387,8.544182 -2.39605,2.139346 -9.225443,10.721408 -9.729003,12.661626 -0.50356,1.940217 1.859595,3.47395 -1.000516,9.174472 -2.86011,5.700522 -9.251739,19.688525 -10.953324,22.698415 -1.701584,3.009885 -3.906729,7.959995 -6.933071,8.094957 -3.026338,0.134952 -4.647298,0.174452 -5.749873,2.649509 -1.102568,2.475046 -3.83595,12.120196 -4.227605,13.629236 -0.391659,1.50906 -0.360383,4.04829 -1.558409,5.11796 -1.198024,1.06967 2.682413,2.07679 1.173354,1.68514 -1.50906,-0.39166 -8.264427,-0.074 -7.704917,-2.22982 0.559509,-2.15579 3.635201,-7.80037 0.905066,-10.57986 -2.730137,-2.77947 -7.257308,-3.95445 -9.923267,-7.86778 C 44.162937,95.223776 37.993373,84.418503 38.513384,80.64174 39.033393,76.864985 38.995512,69.031718 41.136481,65.215461 43.277452,61.399203 54.011952,51.06945 55.050349,49.72825 56.088745,48.387043 62.774958,37.696912 65.21051,37.178525 c 2.435551,-0.518387 3.969283,-2.881541 6.533187,-5.667626 2.563903,-2.786084 6.533185,-5.667623 8.266048,-6.138286 1.732863,-0.470659 7.354382,-0.852471 8.384555,-1.275405 1.03017,-0.422934 0.903441,-4.367544 4.137136,-3.528278 z"
         id="path4629"
         inkscape:connector-curvature="0" />
    </g>
  </g>
</svg>
