<?xml version="1.0" encoding="UTF-8" standalone="no"?>
<!-- Created with Inkscape (http://www.inkscape.org/) -->

<svg
   xmlns:dc="http://purl.org/dc/elements/1.1/"
   xmlns:cc="http://creativecommons.org/ns#"
   xmlns:rdf="http://www.w3.org/1999/02/22-rdf-syntax-ns#"
   xmlns:svg="http://www.w3.org/2000/svg"
   xmlns="http://www.w3.org/2000/svg"
   xmlns:sodipodi="http://sodipodi.sourceforge.net/DTD/sodipodi-0.dtd"
   xmlns:inkscape="http://www.inkscape.org/namespaces/inkscape"
   width="512"
   height="512"
   viewBox="0 0 135.46667 135.46667"
   version="1.1"
   id="svg8"
   inkscape:version="0.92.2 (5c3e80d, 2017-08-06)"
   sodipodi:docname="icon-old.svg"
   inkscape:export-filename="C:\Users\aga\data\website\DeathNoteTW\static\Image\icon-old.png"
   inkscape:export-xdpi="96"
   inkscape:export-ydpi="96">
  <defs
     id="defs2" />
  <sodipodi:namedview
     id="base"
     pagecolor="#ffffff"
     bordercolor="#666666"
     borderopacity="1.0"
     inkscape:pageopacity="0.0"
     inkscape:pageshadow="2"
     inkscape:zoom="0.98994949"
     inkscape:cx="-64.57811"
     inkscape:cy="227.66499"
     inkscape:document-units="mm"
     inkscape:current-layer="layer2"
     showgrid="false"
     units="px"
     showguides="false"
     inkscape:snap-nodes="false"
     inkscape:window-width="1920"
     inkscape:window-height="986"
     inkscape:window-x="-11"
     inkscape:window-y="-11"
     inkscape:window-maximized="1" />
  <metadata
     id="metadata5">
    <rdf:RDF>
      <cc:Work
         rdf:about="">
        <dc:format>image/svg+xml</dc:format>
        <dc:type
           rdf:resource="http://purl.org/dc/dcmitype/StillImage" />
        <dc:title></dc:title>
      </cc:Work>
    </rdf:RDF>
  </metadata>
  <g
     inkscape:groupmode="layer"
     id="layer3"
     inkscape:label="circle"
     style="display:inline"
     sodipodi:insensitive="true">
    <path
       style="fill:#f9f9f9;fill-opacity:1;stroke:none;stroke-width:0.26458332px;stroke-linecap:butt;stroke-linejoin:miter;stroke-opacity:1"
       d="m 36.474701,116.37887 c 0,0 -13.18565,-4.58351 -18.875185,-10.6542 C 8.2695833,95.769701 2.3279519,87.632472 2.078869,67.241965 1.7318566,38.834731 22.843766,6.0355868 70.30357,5.2538687 115.43851,4.5104438 131.03401,47.171752 130.2128,67.619938 c -1.04291,25.968466 -14.94302,35.712822 -28.91518,48.191972 -7.590275,6.77921 -27.781252,12.6622 -27.781252,12.6622 0,0 44.798132,-24.93996 48.380942,-54.428573 C 124.97388,48.7236 108.59545,11.239951 69.358621,12.057442 24.144496,12.999468 8.3240888,44.640907 9.8273802,67.052975 11.554379,92.800217 15.834677,94.895376 24.001487,105.22858 c 4.111696,5.2024 12.473214,11.15029 12.473214,11.15029 z"
       id="path828"
       inkscape:connector-curvature="0"
       sodipodi:nodetypes="cssssacssssc" />
  </g>
  <g
     inkscape:groupmode="layer"
     id="layer2"
     inkscape:label="main">
    <path
       style="fill:#f9f9f9;fill-opacity:1;stroke:none;stroke-width:0.18431403px;stroke-linecap:butt;stroke-linejoin:miter;stroke-opacity:1"
       d="m 46.991769,39.92765 c 2.479451,3.271532 4.683406,8.304661 7.438349,6.543066 2.754945,-1.761595 8.086,-4.333727 10.840944,-4.837039 2.754943,-0.503314 10.877916,-1.666072 14.303071,-2.64147 2.15319,-0.613174 -3.104461,-6.865906 -5.583912,-6.110938 -2.479449,0.754971 -11.846259,4.781474 -14.325708,5.536443 -2.47945,0.754969 -12.672744,1.509938 -12.672744,1.509938 z"
       id="path882"
       inkscape:connector-curvature="0"
       sodipodi:nodetypes="cssscsc" />
    <path
       style="fill:#f9f9f9;fill-opacity:1;stroke:none;stroke-width:0.18431403px;stroke-linecap:butt;stroke-linejoin:miter;stroke-opacity:1"
       d="m 60.449872,11.490476 c 7.162853,2.438498 11.570765,3.271533 9.091314,10.066256 -2.479449,6.794724 -1.928461,29.947113 -1.928461,31.960363 0,2.013252 -2.479448,9.059632 -4.132415,6.543067 -1.652967,-2.516564 -2.203955,-5.284784 -2.203955,-10.569568 0,-5.284785 -0.820146,-17.501247 -0.935443,-26.259061 -0.05152,-3.913515 0.10896,-11.741057 0.10896,-11.741057 z"
       id="path884"
       inkscape:connector-curvature="0"
       sodipodi:nodetypes="cssssac" />
    <path
       style="fill:#f9f9f9;fill-opacity:1;stroke:none;stroke-width:0.18431403px;stroke-linecap:butt;stroke-linejoin:miter;stroke-opacity:1"
       d="m 27.941531,63.835009 c 5.509889,2.768221 7.492904,7.296068 10.625826,5.378293 3.330949,-2.038996 18.182631,-8.304659 31.130868,-10.066254 12.948237,-1.761594 30.557275,0.219831 28.904311,-2.296733 -1.652972,-2.516564 -4.86577,-7.706854 -9.997679,-6.447591 -5.373424,1.318526 -22.094108,5.379278 -29.532457,7.140874 -7.43835,1.761595 -31.130869,6.291411 -31.130869,6.291411 z"
       id="path886"
       inkscape:connector-curvature="0"
       sodipodi:nodetypes="csscssc" />
    <path
       style="fill:#f9f9f9;fill-opacity:1;stroke:none;stroke-width:0.18431403px;stroke-linecap:butt;stroke-linejoin:miter;stroke-opacity:1"
       d="m 93.628422,20.360903 c 3.305931,2.264907 8.227858,7.658984 2.993467,12.692113 -5.234396,5.033128 -25.661779,34.625319 -41.406411,49.152912 -7.719166,7.122485 -23.721752,18.048732 -25.650213,18.300392 -1.928461,0.25166 2.192064,-2.650855 8.803929,-9.193923 C 44.98106,84.76933 62.545916,65.935159 73.122615,52.007157 80.724412,41.996676 93.628422,20.360903 93.628422,20.360903 Z"
       id="path888"
       inkscape:connector-curvature="0"
       sodipodi:nodetypes="csassac" />
    <path
       style="fill:#f9f9f9;fill-opacity:1;stroke:none;stroke-width:0.18431403px;stroke-linecap:butt;stroke-linejoin:miter;stroke-opacity:1"
       d="m 85.519863,67.861509 c 2.203955,2.264909 9.366808,5.536443 4.132416,9.059635 -5.234394,3.523185 -22.315048,9.814599 -24.519003,8.304662 -2.203955,-1.509945 3.03044,-5.284788 6.887361,-6.794729 3.856922,-1.509933 13.499226,-10.569568 13.499226,-10.569568 z"
       id="path890"
       inkscape:connector-curvature="0" />
    <path
       style="fill:#f9f9f9;fill-opacity:1;stroke:none;stroke-width:0.18431403px;stroke-linecap:butt;stroke-linejoin:miter;stroke-opacity:1"
       d="m 63.550842,65.280313 c 4.683404,2.013248 9.917798,3.523188 8.264832,8.053003 -1.652967,4.529814 -6.611867,19.125893 -6.611867,21.642453 0,2.51657 11.818856,5.303391 17.631643,3.774854 4.813549,-1.265779 9.660325,-4.750641 14.349675,-3.301411 3.611515,1.116126 11.339445,7.349908 7.689885,8.334528 -4.66443,1.25843 -23.370309,3.87317 -33.88582,-0.25166 -4.515737,-1.77135 -11.028194,-4.972189 -10.744281,-9.814601 0.441041,-7.522376 3.305933,-28.437166 3.305933,-28.437166 z"
       id="path894"
       inkscape:connector-curvature="0"
       sodipodi:nodetypes="csssasasc" />
  </g>
</svg>
