<?xml version="1.0" encoding="UTF-8" standalone="no"?>
<!-- Created with Inkscape (http://www.inkscape.org/) -->

<svg
   xmlns:dc="http://purl.org/dc/elements/1.1/"
   xmlns:cc="http://creativecommons.org/ns#"
   xmlns:rdf="http://www.w3.org/1999/02/22-rdf-syntax-ns#"
   xmlns:svg="http://www.w3.org/2000/svg"
   xmlns="http://www.w3.org/2000/svg"
   xmlns:sodipodi="http://sodipodi.sourceforge.net/DTD/sodipodi-0.dtd"
   xmlns:inkscape="http://www.inkscape.org/namespaces/inkscape"
   width="512"
   height="512"
   viewBox="0 0 135.46667 135.46667"
   version="1.1"
   id="svg8"
   inkscape:version="0.92.2 (5c3e80d, 2017-08-06)"
   sodipodi:docname="logo.svg"
   inkscape:export-filename="C:\Users\aga\data\website\DeathNoteTW\static\Image\logo.png"
   inkscape:export-xdpi="96"
   inkscape:export-ydpi="96">
  <defs
     id="defs2" />
  <sodipodi:namedview
     id="base"
     pagecolor="#ffffff"
     bordercolor="#666666"
     borderopacity="1.0"
     inkscape:pageopacity="0.0"
     inkscape:pageshadow="2"
     inkscape:zoom="0.9899495"
     inkscape:cx="66.989512"
     inkscape:cy="260.2194"
     inkscape:document-units="mm"
     inkscape:current-layer="layer2"
     showgrid="false"
     units="px"
     showguides="false"
     inkscape:snap-nodes="false"
     inkscape:window-width="1920"
     inkscape:window-height="986"
     inkscape:window-x="-11"
     inkscape:window-y="-11"
     inkscape:window-maximized="1" />
  <metadata
     id="metadata5">
    <rdf:RDF>
      <cc:Work
         rdf:about="">
        <dc:format>image/svg+xml</dc:format>
        <dc:type
           rdf:resource="http://purl.org/dc/dcmitype/StillImage" />
        <dc:title></dc:title>
      </cc:Work>
    </rdf:RDF>
  </metadata>
  <g
     inkscape:groupmode="layer"
     id="layer2"
     inkscape:label="main"
     sodipodi:insensitive="true">
    <g
       id="g4560"
       transform="matrix(1.064902,-0.15823449,0.17065421,0.98740156,-17.176729,13.281548)">
      <path
         inkscape:connector-curvature="0"
         id="path4496"
         d="m 36.096725,67.24196 c 0,0 0.18899,-3.212791 1.889882,-6.80357 C 39.6875,56.847621 45.735118,44.941371 48.380951,41.539581 51.026784,38.137801 61.232142,27.74345 63.122024,23.7747 65.011906,19.80595 73.138392,11.67946 74.839285,10.92351 c 1.700892,-0.75595 7.559524,-0.56696 8.693454,-1.32291 1.133927,-0.75596 6.236605,-2.45685 6.236605,-2.45685 0,0 -3.401785,3.02381 -4.724702,4.53571 -1.322916,1.51191 -3.023809,0.94494 -6.236607,1.88988 -3.212796,0.94495 -8.504463,3.59078 -10.961309,7.55953 -2.456845,3.96875 -5.480654,7.74851 -9.449404,12.28422 -3.96875,4.535719 -9.827382,15.308042 -14.174108,21.35566 -4.346725,6.047621 -8.126489,12.47321 -8.126489,12.47321 z"
         style="fill:#000000;fill-opacity:1;stroke:none;stroke-width:0.26458332px;stroke-linecap:butt;stroke-linejoin:miter;stroke-opacity:1" />
      <path
         inkscape:connector-curvature="0"
         id="path4500"
         d="m 96.194941,10.92351 c 0,0 6.236609,-2.26786 8.693449,-0.37797 2.45685,1.88988 8.31548,6.80357 7.37054,8.50446 -0.94494,1.70089 -8.69346,4.7247 -7.9375,6.99256 0.75595,2.26786 4.91369,10.772319 2.64583,13.98512 -2.26786,3.212801 -9.071427,11.717261 -9.071427,14.74107 0,3.023812 -4.535715,22.11161 -7.559524,27.970242 -3.023809,5.858629 -7.9375,20.599698 -10.205358,21.544638 -2.267857,0.94494 -9.071427,5.10268 -9.638392,8.69345 -0.566965,3.59078 -3.590774,14.74107 -3.779761,16.25298 -0.188989,1.5119 -3.590774,0 -3.590774,-1.51191 0,-1.5119 2.267857,-3.96875 2.267857,-5.29166 0,-1.32292 1.88988,-17.00893 3.96875,-18.89881 2.078869,-1.88988 6.425595,-3.590779 6.99256,-5.10268 0.566965,-1.511909 6.425594,-10.394349 7.559524,-14.930059 1.133927,-4.53572 9.071427,-26.458331 9.071427,-28.34821 0,-1.88989 -1.511903,-3.40179 -0.566965,-5.291672 0.944941,-1.889879 4.913691,-5.858629 5.291667,-8.504468 0.377978,-2.64583 4.346726,-6.61458 4.346726,-8.315471 0,-1.70089 -3.02381,-7.9375 -1.88988,-10.39435 1.13393,-2.45684 5.66964,-2.26785 4.7247,-4.91369 -0.94494,-2.64583 -1.88988,-5.29166 -4.15774,-5.48065 -2.267852,-0.18899 -4.535709,-1.32292 -4.535709,-1.32292 z"
         style="fill:#000000;fill-opacity:1;stroke:none;stroke-width:0.26458332px;stroke-linecap:butt;stroke-linejoin:miter;stroke-opacity:1" />
      <path
         inkscape:connector-curvature="0"
         id="path4502"
         d="m 35.340774,71.021721 c 0,0 -7.181549,13.04018 -6.614584,17.00893 0.566966,3.96875 7.181549,21.355659 10.77232,23.812499 3.590774,2.45685 12.662204,6.80357 13.985121,10.20536 1.322917,3.40179 5.291667,7.18155 5.291667,7.18155 0,0 0.188987,-13.98512 -3.401788,-16.06399 C 51.782739,111.0872 43.845239,108.81934 39.49851,98.613992 35.151785,88.408632 33.072916,87.65268 34.206844,82.55 c 1.13393,-5.10268 1.13393,-11.528279 1.13393,-11.528279 z"
         style="fill:#000000;fill-opacity:1;stroke:none;stroke-width:0.26458332px;stroke-linecap:butt;stroke-linejoin:miter;stroke-opacity:1" />
    </g>
    <path
       style="fill:none;stroke:none;stroke-width:0.31029662px;stroke-linecap:butt;stroke-linejoin:miter;stroke-opacity:1"
       d="m 107.93996,65.449598 c 0,0 16.16333,-4.2945 21.51523,0.132282 14.37959,11.893969 22.52951,37.53883 30.63865,58.06263 0,0 -16.57926,-42.467261 -35.24215,-54.861285 -4.68543,-3.111592 -16.91173,-3.333627 -16.91173,-3.333627 z"
       id="path4547"
       inkscape:connector-curvature="0"
       sodipodi:nodetypes="cscac" />
    <path
       style="fill:#000000;fill-opacity:1;stroke:none;stroke-width:0.31029662px;stroke-linecap:butt;stroke-linejoin:miter;stroke-opacity:1"
       d="m 65.314941,38.540411 c 0,0 -12.276973,4.980659 -10.574469,9.167225 3.168108,7.790575 23.176179,8.330615 26.92585,0.765286 1.343411,-2.710466 -6.506925,-6.609288 -6.506925,-6.609288 0,0 10.802546,3.506828 10.337519,7.551385 -0.732038,6.366893 -11.732603,9.014037 -18.610243,8.439089 C 60.594086,57.32807 51.54896,53.291429 51.623537,47.433542 c 0.06577,-5.16631 13.691404,-8.893131 13.691404,-8.893131 z"
       id="path4562"
       inkscape:connector-curvature="0"
       sodipodi:nodetypes="caacaaac" />
    <path
       style="fill:#000000;fill-opacity:1;stroke:none;stroke-width:0.34003177px;stroke-linecap:butt;stroke-linejoin:miter;stroke-opacity:1"
       d="m 66.54764,52.340099 c 2.833301,0.596872 6.212746,-2.996447 6.641842,-6.171395 0.278788,-2.062798 -1.191796,-5.180682 -3.064358,-5.246113 -2.956432,-0.103307 -5.091033,4.642973 -5.294961,7.928584 -0.08212,1.323056 0.547151,3.242378 1.717477,3.488924 z"
       id="path4564"
       inkscape:connector-curvature="0"
       sodipodi:nodetypes="aaaaa" />
    <path
       style="fill:#000000;fill-opacity:1;stroke:none;stroke-width:0.31029662px;stroke-linecap:butt;stroke-linejoin:miter;stroke-opacity:1"
       d="m 45.723009,73.886181 c 0,0 6.748159,8.758298 16.601302,8.602029 10.058541,-0.159525 14.159933,-6.338335 14.159933,-6.338335 0,0 -4.612967,12.193483 -17.41509,10.563896 -8.946736,-1.138833 -13.346145,-12.82759 -13.346145,-12.82759 z"
       id="path4566"
       inkscape:connector-curvature="0"
       sodipodi:nodetypes="cscsc" />
    <path
       style="fill:#000000;fill-opacity:1;stroke:none;stroke-width:0.31029662px;stroke-linecap:butt;stroke-linejoin:miter;stroke-opacity:1"
       d="m 48.905335,79.534264 c 0,0 -2.428302,6.990053 -2.103566,11.153219 0.32474,4.163169 1.280308,6.429524 1.280308,6.429524 0,0 0.984428,-8.255381 1.823782,-10.42876 0.839351,-2.173378 2.55504,-4.684521 1.821226,-5.242538 -0.733816,-0.558016 -2.82175,-1.911445 -2.82175,-1.911445 z"
       id="path4568"
       inkscape:connector-curvature="0" />
    <path
       inkscape:connector-curvature="0"
       id="path4570"
       d="m 73.380375,80.702703 c 0,0 -0.04651,7.343609 -1.756704,11.204708 -1.710191,3.861101 -3.381053,5.737586 -3.381053,5.737586 0,0 1.844246,-8.127748 1.778589,-10.435469 -0.06566,-2.307718 -0.85013,-5.189989 0.03488,-5.507704 0.885019,-0.317714 3.324282,-0.999121 3.324282,-0.999121 z"
       style="fill:#000000;fill-opacity:1;stroke:none;stroke-width:0.31029662px;stroke-linecap:butt;stroke-linejoin:miter;stroke-opacity:1" />
  </g>
  <g
     inkscape:groupmode="layer"
     id="layer3"
     inkscape:label="wing"
     style="display:inline"
     sodipodi:insensitive="true">
    <path
       style="fill:#000000;fill-opacity:1;stroke:none;stroke-width:0.27477071px;stroke-linecap:butt;stroke-linejoin:miter;stroke-opacity:1"
       d="m 118.00303,51.36554 c 0,0 -12.40761,4.626929 -9.81104,5.52754 2.59656,0.900606 8.2164,6.809153 7.41471,14.586487 -0.8017,7.777336 -9.23777,35.068733 -9.23777,35.068733 0,0 13.14793,-17.716503 16.99885,-27.731657 2.8936,-7.52541 3.25319,-13.456689 4.32536,-23.630241 4.26592,15.055517 -3.58405,30.256897 -10.84108,43.548598 -5.08128,9.30667 -20.776858,24.01755 -22.01011,23.72365 0,0 18.17938,-44.901109 16.9669,-51.493008 -1.21248,-6.5919 -1.26663,-7.196615 -3.90776,-9.5718 -2.75052,-2.473562 -5.92917,-2.951817 -10.870007,-3.467062 9.606987,-7.8379 20.971947,-6.56124 20.971947,-6.56124 z"
       id="path4553"
       inkscape:connector-curvature="0"
       sodipodi:nodetypes="ccscacacsacc" />
    <path
       sodipodi:nodetypes="ccscacacsacc"
       inkscape:connector-curvature="0"
       id="path4555"
       d="m 10.719002,54.354515 c 0,0 15.176041,3.622156 12.824831,4.464482 -2.351204,0.842318 -7.280558,7.478689 -6.649152,14.509878 0.631404,7.031188 5.541315,29.758105 5.541315,29.758105 0,0 -9.758358,-14.814386 -12.62358,-23.035881 C 7.4328453,73.223136 7.0378048,67.904937 6.1906997,58.707668 c -4.022159,13.671942 3.8734563,26.913004 9.2614873,39.30418 3.205946,7.372892 12.344255,20.519092 13.459397,20.240182 0,0 -8.773583,-39.454224 -7.603243,-45.433488 1.170343,-5.979263 2.094323,-7.262984 4.732209,-9.946766 2.483292,-2.526497 5.174469,-4.452534 9.634377,-4.970565 C 27.106821,50.90727 10.718996,54.354516 10.718996,54.354516 Z"
       style="fill:#000000;fill-opacity:1;stroke:none;stroke-width:0.24817826px;stroke-linecap:butt;stroke-linejoin:miter;stroke-opacity:1" />
  </g>
</svg>
