<?xml version="1.0" encoding="UTF-8" standalone="no"?>
<!-- Created with Inkscape (http://www.inkscape.org/) -->

<svg
   xmlns:dc="http://purl.org/dc/elements/1.1/"
   xmlns:cc="http://creativecommons.org/ns#"
   xmlns:rdf="http://www.w3.org/1999/02/22-rdf-syntax-ns#"
   xmlns:svg="http://www.w3.org/2000/svg"
   xmlns="http://www.w3.org/2000/svg"
   xmlns:sodipodi="http://sodipodi.sourceforge.net/DTD/sodipodi-0.dtd"
   xmlns:inkscape="http://www.inkscape.org/namespaces/inkscape"
   width="512"
   height="512"
   viewBox="0 0 135.46667 135.46667"
   version="1.1"
   id="svg8"
   inkscape:version="0.92.2 (5c3e80d, 2017-08-06)"
   sodipodi:docname="logo.svg"
   inkscape:export-filename="C:\Users\aga\data\website\DeathNoteTW\static\Image\logo.png"
   inkscape:export-xdpi="96"
   inkscape:export-ydpi="96">
  <defs
     id="defs2" />
  <sodipodi:namedview
     id="base"
     pagecolor="#ffffff"
     bordercolor="#666666"
     borderopacity="1.0"
     inkscape:pageopacity="0.0"
     inkscape:pageshadow="2"
     inkscape:zoom="0.98994949"
     inkscape:cx="-48.448043"
     inkscape:cy="227.94467"
     inkscape:document-units="mm"
     inkscape:current-layer="layer2"
     showgrid="false"
     units="px"
     showguides="false"
     inkscape:snap-nodes="false"
     inkscape:window-width="1920"
     inkscape:window-height="986"
     inkscape:window-x="-11"
     inkscape:window-y="-11"
     inkscape:window-maximized="1" />
  <metadata
     id="metadata5">
    <rdf:RDF>
      <cc:Work
         rdf:about="">
        <dc:format>image/svg+xml</dc:format>
        <dc:type
           rdf:resource="http://purl.org/dc/dcmitype/StillImage" />
        <dc:title />
      </cc:Work>
    </rdf:RDF>
  </metadata>
  <g
     inkscape:groupmode="layer"
     id="layer2"
     inkscape:label="main">
    <g
       id="g4560"
       transform="matrix(0.87433008,-0.12991728,0.1401144,0.8106989,2.4960308,23.227171)">
      <path
         inkscape:connector-curvature="0"
         id="path4496"
         d="m 36.096725,67.24196 c 0,0 0.18899,-3.212791 1.889882,-6.80357 C 39.6875,56.847621 45.735118,44.941371 48.380951,41.539581 51.026784,38.137801 61.232142,27.74345 63.122024,23.7747 65.011906,19.80595 73.138392,11.67946 74.839285,10.92351 c 1.700892,-0.75595 7.559524,-0.56696 8.693454,-1.32291 1.133927,-0.75596 6.236605,-2.45685 6.236605,-2.45685 0,0 -3.401785,3.02381 -4.724702,4.53571 -1.322916,1.51191 -3.023809,0.94494 -6.236607,1.88988 -3.212796,0.94495 -8.504463,3.59078 -10.961309,7.55953 -2.456845,3.96875 -5.480654,7.74851 -9.449404,12.28422 -3.96875,4.535719 -9.827382,15.308042 -14.174108,21.35566 -4.346725,6.047621 -8.126489,12.47321 -8.126489,12.47321 z"
         style="fill:#000000;fill-opacity:1;stroke:none;stroke-width:0.26458332px;stroke-linecap:butt;stroke-linejoin:miter;stroke-opacity:1" />
      <path
         inkscape:connector-curvature="0"
         id="path4500"
         d="m 96.194941,10.92351 c 0,0 6.236609,-2.26786 8.693449,-0.37797 2.45685,1.88988 8.31548,6.80357 7.37054,8.50446 -0.94494,1.70089 -8.69346,4.7247 -7.9375,6.99256 0.75595,2.26786 4.91369,10.772319 2.64583,13.98512 -2.26786,3.212801 -9.071427,11.717261 -9.071427,14.74107 0,3.023812 -4.535715,22.11161 -7.559524,27.970242 -3.023809,5.858629 -7.9375,20.599698 -10.205358,21.544638 -2.267857,0.94494 -9.071427,5.10268 -9.638392,8.69345 -0.566965,3.59078 -3.590774,14.74107 -3.779761,16.25298 -0.188989,1.5119 -3.590774,0 -3.590774,-1.51191 0,-1.5119 2.267857,-3.96875 2.267857,-5.29166 0,-1.32292 1.88988,-17.00893 3.96875,-18.89881 2.078869,-1.88988 6.425595,-3.590779 6.99256,-5.10268 0.566965,-1.511909 6.425594,-10.394349 7.559524,-14.930059 1.133927,-4.53572 9.071427,-26.458331 9.071427,-28.34821 0,-1.88989 -1.511903,-3.40179 -0.566965,-5.291672 0.944941,-1.889879 4.913691,-5.858629 5.291667,-8.504468 0.377978,-2.64583 4.346726,-6.61458 4.346726,-8.315471 0,-1.70089 -3.02381,-7.9375 -1.88988,-10.39435 1.13393,-2.45684 5.66964,-2.26785 4.7247,-4.91369 -0.94494,-2.64583 -1.88988,-5.29166 -4.15774,-5.48065 -2.267852,-0.18899 -4.535709,-1.32292 -4.535709,-1.32292 z"
         style="fill:#000000;fill-opacity:1;stroke:none;stroke-width:0.26458332px;stroke-linecap:butt;stroke-linejoin:miter;stroke-opacity:1" />
      <path
         inkscape:connector-curvature="0"
         id="path4502"
         d="m 35.340774,71.021721 c 0,0 -7.181549,13.04018 -6.614584,17.00893 0.566966,3.96875 7.181549,21.355659 10.77232,23.812499 3.590774,2.45685 12.662204,6.80357 13.985121,10.20536 1.322917,3.40179 5.291667,7.18155 5.291667,7.18155 0,0 0.188987,-13.98512 -3.401788,-16.06399 C 51.782739,111.0872 43.845239,108.81934 39.49851,98.613992 35.151785,88.408632 33.072916,87.65268 34.206844,82.55 c 1.13393,-5.10268 1.13393,-11.528279 1.13393,-11.528279 z"
         style="fill:#000000;fill-opacity:1;stroke:none;stroke-width:0.26458332px;stroke-linecap:butt;stroke-linejoin:miter;stroke-opacity:1" />
    </g>
    <path
       style="fill:none;stroke:none;stroke-width:0.31029662px;stroke-linecap:butt;stroke-linejoin:miter;stroke-opacity:1"
       d="m 107.93996,65.449598 c 0,0 16.16333,-4.2945 21.51523,0.132282 14.37959,11.893969 22.52951,37.53883 30.63865,58.06263 0,0 -16.57926,-42.467261 -35.24215,-54.861285 -4.68543,-3.111592 -16.91173,-3.333627 -16.91173,-3.333627 z"
       id="path4547"
       inkscape:connector-curvature="0"
       sodipodi:nodetypes="cscac" />
    <path
       style="fill:#000000;fill-opacity:1;stroke:none;stroke-width:0.25476679px;stroke-linecap:butt;stroke-linejoin:miter;stroke-opacity:1"
       d="m 70.225222,43.965777 c 0,0 -10.079919,4.089334 -8.682091,7.526684 2.601152,6.396395 19.028634,6.839791 22.107274,0.628332 1.102998,-2.225408 -5.342463,-5.426508 -5.342463,-5.426508 0,0 8.869352,2.879256 8.487545,6.20001 -0.601035,5.227492 -9.632969,7.40091 -15.279805,6.928853 -5.166483,-0.431899 -12.592919,-3.746154 -12.531688,-8.55573 0.054,-4.241761 11.241228,-7.301641 11.241228,-7.301641 z"
       id="path4562"
       inkscape:connector-curvature="0"
       sodipodi:nodetypes="caacaaac" />
    <path
       style="fill:#ff0000;fill-opacity:1;stroke:none;stroke-width:0.27918062px;stroke-linecap:butt;stroke-linejoin:miter;stroke-opacity:1"
       d="m 71.237321,55.295911 c 2.326261,0.490058 5.10093,-2.460211 5.453236,-5.066979 0.228897,-1.693645 -0.978515,-4.253562 -2.515969,-4.307283 -2.427357,-0.08482 -4.179955,3.812079 -4.347389,6.509706 -0.06742,1.086286 0.449234,2.662131 1.410122,2.864556 z"
       id="path4564"
       inkscape:connector-curvature="0"
       sodipodi:nodetypes="aaaaa" />
    <path
       style="fill:#000000;fill-opacity:1;stroke:none;stroke-width:0.25476679px;stroke-linecap:butt;stroke-linejoin:miter;stroke-opacity:1"
       d="m 54.139409,72.986166 c 0,0 5.540527,7.190937 13.630378,7.062633 8.258493,-0.130976 11.625911,-5.204044 11.625911,-5.204044 0,0 -3.787443,10.011371 -14.298534,8.673411 -7.345653,-0.935031 -10.957755,-10.532 -10.957755,-10.532 z"
       id="path4566"
       inkscape:connector-curvature="0"
       sodipodi:nodetypes="cscsc" />
    <path
       style="fill:#000000;fill-opacity:1;stroke:none;stroke-width:0.25476679px;stroke-linecap:butt;stroke-linejoin:miter;stroke-opacity:1"
       d="m 56.752234,77.623483 c 0,0 -1.99374,5.739133 -1.727117,9.15727 0.266625,3.41814 1.051187,5.278914 1.051187,5.278914 0,0 0.808258,-6.778021 1.497403,-8.562458 0.689143,-1.784436 2.097797,-3.846192 1.495305,-4.304348 -0.602495,-0.458154 -2.316778,-1.569378 -2.316778,-1.569378 z"
       id="path4568"
       inkscape:connector-curvature="0" />
    <path
       inkscape:connector-curvature="0"
       id="path4570"
       d="m 76.847289,78.582822 c 0,0 -0.03819,6.029417 -1.442329,9.199544 -1.40414,3.170129 -2.77599,4.710804 -2.77599,4.710804 0,0 1.514205,-6.673229 1.460298,-8.567967 -0.05391,-1.894735 -0.697993,-4.261203 0.02864,-4.52206 0.726639,-0.260857 2.729378,-0.820321 2.729378,-0.820321 z"
       style="fill:#000000;fill-opacity:1;stroke:none;stroke-width:0.25476679px;stroke-linecap:butt;stroke-linejoin:miter;stroke-opacity:1" />
  </g>
  <g
     inkscape:groupmode="layer"
     id="layer3"
     inkscape:label="wing"
     style="display:inline">
    <path
       style="fill:#000000;fill-opacity:1;stroke:none;stroke-width:0.21723422px;stroke-linecap:butt;stroke-linejoin:miter;stroke-opacity:1"
       d="m 17.060443,30.009432 c 0,0 -5.952283,9.984859 -8.4172727,22.331875 -4.3348156,21.712888 1.3735477,36.230037 1.3735477,36.230037 0,0 1.182294,-17.286794 5.086122,-32.199651 3.578395,-13.669689 13.887769,-15.14229 12.494227,-18.664771 -1.393543,-3.52248 -10.536624,-7.69749 -10.536624,-7.69749 z"
       id="path828"
       inkscape:connector-curvature="0"
       sodipodi:nodetypes="cscssc" />
    <path
       style="fill:#000000;fill-opacity:1;stroke:none;stroke-width:0.21723422px;stroke-linecap:butt;stroke-linejoin:miter;stroke-opacity:1"
       d="m 18.174366,28.885315 c 0,0 -1.709715,2.5903 -0.867823,7.793755 0.55104,3.405796 13.272026,10.62848 27.756614,19.450305 l 1.543754,-3.945253 C 32.155914,40.999613 18.174366,28.885315 18.174366,28.885315 Z m 76.376344,53.40207 -0.93819,3.979287 c 14.60929,8.85561 28.97783,18.236308 29.19486,19.295838 0.3523,1.71982 7.78311,-1.37032 7.07853,-4.80994 -0.44835,-2.188805 -18.54153,-10.190983 -35.3352,-18.465185 z"
       id="path830"
       inkscape:connector-curvature="0"
       sodipodi:nodetypes="cscccccccc" />
  </g>
</svg>
